<svg width="163" height="163" viewBox="0 0 163 163" fill="none" xmlns="http://www.w3.org/2000/svg">
<path d="M66.7921 121.933C65.8633 121.93 64.945 121.736 64.0943 121.363C63.2436 120.99 62.4787 120.446 61.8471 119.765L28.9253 84.7431C27.6946 83.4316 27.0353 81.6849 27.0925 79.8874C27.1497 78.0898 27.9186 76.3885 29.2301 75.1579C30.5416 73.9272 32.2883 73.2679 34.0859 73.3251C35.8834 73.3823 37.5847 74.1512 38.8153 75.4627L66.7244 105.201L123.694 42.8796C124.272 42.1597 124.991 41.5656 125.807 41.1337C126.624 40.7018 127.519 40.4414 128.44 40.3683C129.36 40.2953 130.286 40.4112 131.16 40.7089C132.034 41.0066 132.838 41.4798 133.522 42.0996C134.207 42.7193 134.757 43.4724 135.14 44.3126C135.523 45.1528 135.73 46.0625 135.748 46.9856C135.767 47.9088 135.596 48.8259 135.248 49.6808C134.899 50.5357 134.379 51.3102 133.72 51.9568L71.8049 119.697C71.1792 120.39 70.417 120.947 69.566 121.332C68.715 121.716 67.7937 121.921 66.8598 121.933H66.7921Z" fill="#ffff"/>
</svg>
