<svg width="20" height="20" viewBox="0 0 20 20" fill="none" xmlns="http://www.w3.org/2000/svg">
<path fill-rule="evenodd" clip-rule="evenodd" d="M13.5 3.66429C13.2348 3.66429 12.9804 3.76362 12.7929 3.94044C12.6054 4.11726 12.5 4.35708 12.5 4.60715C12.5 4.85721 12.6054 5.09703 12.7929 5.27385C12.9804 5.45067 13.2348 5.55 13.5 5.55C13.7652 5.55 14.0196 5.45067 14.2071 5.27385C14.3946 5.09703 14.5 4.85721 14.5 4.60715C14.5 4.35708 14.3946 4.11726 14.2071 3.94044C14.0196 3.76362 13.7652 3.66429 13.5 3.66429ZM11.114 3.9C11.2736 3.42118 11.591 3.00285 12.0201 2.70587C12.4492 2.40889 12.9677 2.24875 13.5 2.24875C14.0323 2.24875 14.5508 2.40889 14.9799 2.70587C15.409 3.00285 15.7264 3.42118 15.886 3.9H17.75C17.9489 3.9 18.1397 3.97451 18.2803 4.10712C18.421 4.23974 18.5 4.4196 18.5 4.60715C18.5 4.79469 18.421 4.97456 18.2803 5.10717C18.1397 5.23979 17.9489 5.31429 17.75 5.31429H15.886C15.7262 5.79275 15.4087 6.2107 14.9797 6.50739C14.5507 6.80408 14.0325 6.96404 13.5005 6.96404C12.9685 6.96404 12.4503 6.80408 12.0213 6.50739C11.5923 6.2107 11.2748 5.79275 11.115 5.31429H2.25C2.05109 5.31429 1.86032 5.23979 1.71967 5.10717C1.57902 4.97456 1.5 4.79469 1.5 4.60715C1.5 4.4196 1.57902 4.23974 1.71967 4.10712C1.86032 3.97451 2.05109 3.9 2.25 3.9H11.114ZM4.114 9.32143C4.27356 8.84261 4.591 8.42428 5.02012 8.1273C5.44925 7.83032 5.96768 7.67018 6.5 7.67018C7.03232 7.67018 7.55075 7.83032 7.97988 8.1273C8.409 8.42428 8.72644 8.84261 8.886 9.32143H17.75C17.9489 9.32143 18.1397 9.39593 18.2803 9.52855C18.421 9.66116 18.5 9.84103 18.5 10.0286C18.5 10.2161 18.421 10.396 18.2803 10.5286C18.1397 10.6612 17.9489 10.7357 17.75 10.7357H8.886C8.72644 11.2145 8.409 11.6329 7.97988 11.9299C7.55075 12.2268 7.03232 12.387 6.5 12.387C5.96768 12.387 5.44925 12.2268 5.02012 11.9299C4.591 11.6329 4.27356 11.2145 4.114 10.7357H2.25C2.05109 10.7357 1.86032 10.6612 1.71967 10.5286C1.57902 10.396 1.5 10.2161 1.5 10.0286C1.5 9.84103 1.57902 9.66116 1.71967 9.52855C1.86032 9.39593 2.05109 9.32143 2.25 9.32143H4.114ZM6.5 9.08572C6.23478 9.08572 5.98043 9.18505 5.79289 9.36187C5.60536 9.53869 5.5 9.77851 5.5 10.0286C5.5 10.2786 5.60536 10.5185 5.79289 10.6953C5.98043 10.8721 6.23478 10.9714 6.5 10.9714C6.76522 10.9714 7.01957 10.8721 7.20711 10.6953C7.39464 10.5185 7.5 10.2786 7.5 10.0286C7.5 9.77851 7.39464 9.53869 7.20711 9.36187C7.01957 9.18505 6.76522 9.08572 6.5 9.08572ZM12.5 14.5071C12.2348 14.5071 11.9804 14.6065 11.7929 14.7833C11.6054 14.9601 11.5 15.1999 11.5 15.45C11.5 15.7001 11.6054 15.9399 11.7929 16.1167C11.9804 16.2935 12.2348 16.3929 12.5 16.3929C12.7652 16.3929 13.0196 16.2935 13.2071 16.1167C13.3946 15.9399 13.5 15.7001 13.5 15.45C13.5 15.1999 13.3946 14.9601 13.2071 14.7833C13.0196 14.6065 12.7652 14.5071 12.5 14.5071ZM10.114 14.7429C10.2736 14.264 10.591 13.8457 11.0201 13.5487C11.4492 13.2517 11.9677 13.0916 12.5 13.0916C13.0323 13.0916 13.5508 13.2517 13.9799 13.5487C14.409 13.8457 14.7264 14.264 14.886 14.7429H17.75C17.9489 14.7429 18.1397 14.8174 18.2803 14.95C18.421 15.0826 18.5 15.2625 18.5 15.45C18.5 15.6375 18.421 15.8174 18.2803 15.95C18.1397 16.0826 17.9489 16.1571 17.75 16.1571H14.886C14.7262 16.6356 14.4087 17.0536 13.9797 17.3502C13.5507 17.6469 13.0325 17.8069 12.5005 17.8069C11.9685 17.8069 11.4503 17.6469 11.0213 17.3502C10.5923 17.0536 10.2748 16.6356 10.115 16.1571H2.25C2.05109 16.1571 1.86032 16.0826 1.71967 15.95C1.57902 15.8174 1.5 15.6375 1.5 15.45C1.5 15.2625 1.57902 15.0826 1.71967 14.95C1.86032 14.8174 2.05109 14.7429 2.25 14.7429H10.114Z" fill="#A0A0A9"/>
</svg>
