<svg width="20" height="20" viewBox="0 0 20 20" fill="none" xmlns="http://www.w3.org/2000/svg">
<rect width="20" height="18.8571" transform="translate(0 0.600006)"/>
<path fill-rule="evenodd" clip-rule="evenodd" d="M9 3.42856C7.4087 3.42856 5.88258 4.02458 4.75736 5.0855C3.63214 6.14642 3 7.58534 3 9.08571C3 10.5861 3.63214 12.025 4.75736 13.0859C5.88258 14.1468 7.4087 14.7428 9 14.7428C10.5913 14.7428 12.1174 14.1468 13.2426 13.0859C14.3679 12.025 15 10.5861 15 9.08571C15 7.58534 14.3679 6.14642 13.2426 5.0855C12.1174 4.02458 10.5913 3.42856 9 3.42856V3.42856ZM1.5 9.08571C1.49993 7.95273 1.78859 6.83633 2.34167 5.8305C2.89475 4.82467 3.69606 3.95887 4.67813 3.30599C5.66019 2.65312 6.79426 2.23229 7.98484 2.07893C9.17542 1.92558 10.3877 2.0442 11.5195 2.42479C12.6513 2.80539 13.6695 3.43683 14.4885 4.26593C15.3074 5.09504 15.9031 6.09753 16.2253 7.18901C16.5475 8.28049 16.5869 9.42899 16.3401 10.5378C16.0933 11.6466 15.5675 12.6833 14.807 13.5605L18.28 16.836C18.3537 16.9007 18.4128 16.9788 18.4538 17.0655C18.4948 17.1523 18.5168 17.2459 18.5186 17.3409C18.5204 17.4358 18.5018 17.5301 18.4641 17.6182C18.4264 17.7062 18.3703 17.7862 18.299 17.8534C18.2278 17.9205 18.143 17.9735 18.0496 18.009C17.9562 18.0446 17.8562 18.0621 17.7555 18.0604C17.6548 18.0587 17.5555 18.0379 17.4635 17.9993C17.3715 17.9606 17.2887 17.9049 17.22 17.8354L13.747 14.5609C12.648 15.408 11.3165 15.9437 9.90743 16.1056C8.49832 16.2675 7.0694 16.0491 5.78674 15.4757C4.50408 14.9023 3.42036 13.9974 2.66152 12.8662C1.90269 11.7351 1.49991 10.4241 1.5 9.08571V9.08571Z" fill="#A0A0A9"/>
</svg>
