<svg width="23" height="20" viewBox="0 0 23 20" fill="none" xmlns="http://www.w3.org/2000/svg">
<path d="M3.99625 12.75L8.3375 16.525C9.19618 17.2695 10.3593 17.6876 11.5719 17.6876C12.7845 17.6876 13.9476 17.2695 14.8062 16.525L19.0133 12.8667C19.8695 12.12 20.3503 11.1086 20.3503 10.0542C20.3503 8.99976 19.8695 7.98836 19.0133 7.24168L14.6625 3.47501C14.2127 3.08277 13.6732 2.77699 13.0789 2.57746C12.4846 2.37793 11.8488 2.28909 11.2125 2.31668L6.42083 2.51668C4.50417 2.59168 2.98042 3.91668 2.88458 5.57501L2.65458 9.74168C2.59708 10.8667 3.08583 11.9583 3.99625 12.75V12.75Z" stroke="#A0A0A9" stroke-linecap="round" stroke-linejoin="round"/>
<path d="M9.10418 10C9.73959 10 10.349 9.78052 10.7983 9.38982C11.2476 8.99912 11.5 8.46921 11.5 7.91668C11.5 7.36414 11.2476 6.83424 10.7983 6.44354C10.349 6.05284 9.73959 5.83334 9.10418 5.83334C8.46876 5.83334 7.85937 6.05284 7.41007 6.44354C6.96076 6.83424 6.70834 7.36414 6.70834 7.91668C6.70834 8.46921 6.96076 8.99912 7.41007 9.38982C7.85937 9.78052 8.46876 10 9.10418 10V10Z" stroke="#A0A0A9" stroke-linecap="round"/>
</svg>
