<svg width="75" height="75" viewBox="0 0 75 75" fill="none" xmlns="http://www.w3.org/2000/svg">
<path d="M41.4369 37.08L54.7239 23.8239C55.3058 23.242 55.6326 22.4529 55.6326 21.63C55.6326 20.8071 55.3058 20.0179 54.7239 19.4361C54.142 18.8542 53.3529 18.5273 52.53 18.5273C51.7071 18.5273 50.918 18.8542 50.3361 19.4361L37.08 32.7231L23.8239 19.4361C23.242 18.8542 22.4529 18.5273 21.63 18.5273C20.8071 18.5273 20.018 18.8542 19.4361 19.4361C18.8542 20.0179 18.5274 20.8071 18.5274 21.63C18.5274 22.4529 18.8542 23.242 19.4361 23.8239L32.7231 37.08L19.4361 50.3361C19.1465 50.6233 18.9166 50.9651 18.7597 51.3416C18.6028 51.7182 18.5221 52.1221 18.5221 52.53C18.5221 52.9379 18.6028 53.3418 18.7597 53.7183C18.9166 54.0949 19.1465 54.4366 19.4361 54.7239C19.7234 55.0135 20.0651 55.2434 20.4417 55.4003C20.8182 55.5571 21.2221 55.6379 21.63 55.6379C22.0379 55.6379 22.4418 55.5571 22.8183 55.4003C23.1949 55.2434 23.5366 55.0135 23.8239 54.7239L37.08 41.4369L50.3361 54.7239C50.6234 55.0135 50.9651 55.2434 51.3417 55.4003C51.7182 55.5571 52.1221 55.6379 52.53 55.6379C52.9379 55.6379 53.3418 55.5571 53.7183 55.4003C54.0949 55.2434 54.4366 55.0135 54.7239 54.7239C55.0135 54.4366 55.2434 54.0949 55.4003 53.7183C55.5571 53.3418 55.6379 52.9379 55.6379 52.53C55.6379 52.1221 55.5571 51.7182 55.4003 51.3416C55.2434 50.9651 55.0135 50.6233 54.7239 50.3361L41.4369 37.08Z" fill="#ffff"/>
</svg>
